<svg xmlns="http://www.w3.org/2000/svg" viewBox="0 0 298.56 84.916">
  <defs>
    <style>
      .cls-1, .cls-4 {
        fill: #fff;
      }

      .cls-2 {
        fill: none;
      }

      .cls-3, .cls-4 {
        stroke: none;
      }
    </style>
  </defs>
  <g id="Gruppe_8" data-name="Gruppe 8" transform="translate(-393.6 -160.5)">
    <path id="Pfad_44" data-name="Pfad 44" class="cls-1" d="M3.6-50.4q.648-.072,2.268-.216t3.672-.252q2.052-.108,4.248-.18t3.924-.072A27.489,27.489,0,0,1,28.8-49.176a17.09,17.09,0,0,1,6.948,5.364,20.564,20.564,0,0,1,3.564,8.064A47.7,47.7,0,0,1,40.32-25.632a46.714,46.714,0,0,1-1.008,9.72,22.538,22.538,0,0,1-3.636,8.46A18.793,18.793,0,0,1,28.4-1.476,27.184,27.184,0,0,1,16.488.792q-1.152,0-2.952-.072T9.864.54Q7.992.432,6.264.324T3.6.072Zm14.472,8.064q-1.368,0-2.664.108t-1.944.18V-8.28a5.177,5.177,0,0,0,.864.108l1.188.072,1.188.072q.576.036.936.036A12.492,12.492,0,0,0,24.3-9.54a9.749,9.749,0,0,0,3.708-4.068A17.431,17.431,0,0,0,29.592-19.3a56.072,56.072,0,0,0,.36-6.336,52.169,52.169,0,0,0-.324-5.688,16.358,16.358,0,0,0-1.512-5.4,10.083,10.083,0,0,0-3.564-4.032A11.555,11.555,0,0,0,18.072-42.336ZM47.448-7.92H60.12V-28.08H47.448V-36H69.48V-7.92H82.8V0H47.448ZM58.392-45.792a5.091,5.091,0,0,1,1.656-3.816,6.4,6.4,0,0,1,4.608-1.584,7.04,7.04,0,0,1,4.824,1.584,4.91,4.91,0,0,1,1.8,3.816,4.671,4.671,0,0,1-1.8,3.78,7.376,7.376,0,0,1-4.824,1.476,6.685,6.685,0,0,1-4.608-1.476A4.836,4.836,0,0,1,58.392-45.792ZM92.88-33.552a39.293,39.293,0,0,1,6.66-2.232,37.66,37.66,0,0,1,8.964-.936,19.79,19.79,0,0,1,6.372.9,10.649,10.649,0,0,1,4.248,2.556,9.715,9.715,0,0,1,2.34,3.96,17.349,17.349,0,0,1,.72,5.184q0,3.672-.252,6.264t-.252,4.608q0,1.512.144,3.384.144,1.008.216,1.944h4.68V0H114.768l-.936-4.9h-.36a12.477,12.477,0,0,1-4.1,3.852,13.793,13.793,0,0,1-7.2,1.62q-5.4,0-8.568-2.88a9.818,9.818,0,0,1-3.168-7.632,11.393,11.393,0,0,1,1.116-5.22,9.329,9.329,0,0,1,3.24-3.6A15.44,15.44,0,0,1,99.9-20.844a29.9,29.9,0,0,1,6.66-.684q1.3,0,2.736.144t3.528.288a7.326,7.326,0,0,0,.144-1.44V-23.9a4.589,4.589,0,0,0-1.584-3.924,7.734,7.734,0,0,0-4.68-1.188,21.865,21.865,0,0,0-6.624.936,42.451,42.451,0,0,0-4.968,1.872ZM105.192-7.128a8.782,8.782,0,0,0,5.184-1.26,8.512,8.512,0,0,0,2.52-2.7v-4.32q-.72-.144-2.16-.324a25.012,25.012,0,0,0-3.1-.18,15.073,15.073,0,0,0-2.736.252,9.16,9.16,0,0,0-2.448.792,4.793,4.793,0,0,0-1.728,1.4,3.381,3.381,0,0,0-.648,2.088,4.088,4.088,0,0,0,1.188,3.132A5.637,5.637,0,0,0,105.192-7.128ZM132.984-50.4H148.32v33.264q0,5.544,1.368,7.7a4.81,4.81,0,0,0,4.392,2.16,12.1,12.1,0,0,0,3.672-.468,14.042,14.042,0,0,0,2.88-1.332l3.528,6.48q-1.224.792-2.448,1.476A15.753,15.753,0,0,1,159.12.036a17.573,17.573,0,0,1-2.988.72,23.8,23.8,0,0,1-3.636.252q-6.768,0-10.152-3.456T138.96-12.24V-42.48h-5.976Z" transform="translate(390 214)"/>
    <path id="Pfad_45" data-name="Pfad 45" class="cls-1" d="M38.16,0a15.988,15.988,0,0,1-1.332,6.768,13.255,13.255,0,0,1-3.672,4.788,15.125,15.125,0,0,1-5.544,2.808,25.9,25.9,0,0,1-7.02.9,28.265,28.265,0,0,1-4.86-.4,27.933,27.933,0,0,1-4.176-1.044,23.455,23.455,0,0,1-3.348-1.4,13.273,13.273,0,0,1-2.3-1.476L9.5,4.32a26.362,26.362,0,0,0,4.14,2.2A15.383,15.383,0,0,0,19.728,7.56q4.536,0,6.912-2.088A7.532,7.532,0,0,0,29.016-.5v-2.3h-.288A7.538,7.538,0,0,1,24.912-.252,18.69,18.69,0,0,1,19.08.576,18.212,18.212,0,0,1,12.708-.5,13.71,13.71,0,0,1,7.632-3.78,14.813,14.813,0,0,1,4.284-9.36,23.913,23.913,0,0,1,3.1-17.28,23.48,23.48,0,0,1,4.5-25.7,16.814,16.814,0,0,1,8.46-31.86,16.583,16.583,0,0,1,14.58-35.6a23.749,23.749,0,0,1,7.956-1.26q2.3,0,4.608.18t4.356.468q2.052.288,3.78.684a23.007,23.007,0,0,1,2.88.828ZM20.88-6.912a9.956,9.956,0,0,0,4.932-1.224A6.252,6.252,0,0,0,28.8-11.808v-16.2a11.456,11.456,0,0,0-2.844-.684,25.718,25.718,0,0,0-3.492-.252,10.877,10.877,0,0,0-3.78.648,8.048,8.048,0,0,0-3.1,2.052A9.837,9.837,0,0,0,13.5-22.716a15.179,15.179,0,0,0-.756,5.076,15.048,15.048,0,0,0,.648,4.608,9.879,9.879,0,0,0,1.8,3.384A7.725,7.725,0,0,0,17.784-7.6,7.124,7.124,0,0,0,20.88-6.912Z" transform="translate(654 214)"/>
    <path id="Pfad_47" data-name="Pfad 47" class="cls-1" d="M6.5,0A6.5,6.5,0,1,1,0,6.5,6.5,6.5,0,0,1,6.5,0Z" transform="translate(574 182)"/>
    <path id="Pfad_49" data-name="Pfad 49" class="cls-1" d="M6.5,0A6.5,6.5,0,1,1,0,6.5,6.5,6.5,0,0,1,6.5,0Z" transform="translate(597 182)"/>
    <path id="Pfad_48" data-name="Pfad 48" class="cls-1" d="M6.5,0A6.5,6.5,0,1,1,0,6.5,6.5,6.5,0,0,1,6.5,0Z" transform="translate(620 182)"/>
    <g id="Pfad_46" data-name="Pfad 46" class="cls-2" transform="translate(557 159)">
      <path class="cls-3" d="M53.447,56.5H20A18.5,18.5,0,0,1,1.5,38V20A18.5,18.5,0,0,1,20,1.5H91.5v55H70.983L49,86.416Z"/>
      <path class="cls-4" d="M 53.74599838256836 74.89099884033203 L 68.56593322753906 54.72373199462891 L 69.46504211425781 53.50020599365234 L 70.9833984375 53.50020599365234 L 88.50030517578125 53.50020599365234 L 88.50030517578125 4.50030517578125 L 19.99980163574219 4.50030517578125 C 15.85982990264893 4.50030517578125 11.9675874710083 6.112562656402588 9.040072441101074 9.04007625579834 C 6.112558364868164 11.96759128570557 4.500301361083984 15.85983371734619 4.500301361083984 19.99980545043945 L 4.500301361083984 37.99980545043945 C 4.500301361083984 42.14019012451172 6.11257266998291 46.03271865844727 9.040101051330566 48.96036148071289 C 11.96757316589355 51.88792037963867 15.85980129241943 53.50020599365234 19.99980163574219 53.50020599365234 L 53.4471435546875 53.50020599365234 L 56.92611694335938 53.50020599365234 L 56.41453170776367 56.94136428833008 L 53.74599838256836 74.89099884033203 M 48.99959945678711 86.41620635986328 L 53.4471435546875 56.50020599365234 L 19.99980163574219 56.50020599365234 C 9.783000946044922 56.50020599365234 1.500301361083984 48.21750640869141 1.500301361083984 37.99980545043945 L 1.500301361083984 19.99980545043945 C 1.500301361083984 9.783005714416504 9.783000946044922 1.50030529499054 19.99980163574219 1.50030529499054 L 91.50030517578125 1.50030529499054 L 91.50030517578125 56.50020599365234 L 70.9833984375 56.50020599365234 L 48.99959945678711 86.41620635986328 Z"/>
    </g>
  </g>
</svg>
