<svg xmlns="http://www.w3.org/2000/svg" viewBox="0 0 336 120">
  <defs>
    <style>
      .cls-1 {
        fill: #00ea97;
      }

      .cls-2, .cls-3, .cls-4, .cls-7 {
        fill: #fff;
      }

      .cls-2, .cls-3 {
        font-size: 72px;
        font-family: PTMono-Bold, PT Mono;
        font-weight: 700;
      }

      .cls-2 {
        letter-spacing: -0.04em;
      }

      .cls-5 {
        fill: none;
      }

      .cls-6, .cls-7 {
        stroke: none;
      }
    </style>
  </defs>
  <g id="Logo" transform="translate(-64 -40)">
    <rect id="Hintergrund" class="cls-1" width="336" height="120" rx="10" transform="translate(64 40)"/>
    <g id="Name">
      <text id="Dial" class="cls-2" transform="translate(80 124)"><tspan x="0" y="0">Di</tspan><tspan y="0">al</tspan></text>
      <text id="g" class="cls-3" transform="translate(344 124)"><tspan x="0" y="0">g</tspan></text>
    </g>
    <g id="Gruppe_1" data-name="Gruppe 1" transform="translate(4 -14)">
      <circle id="Ellipse_1" data-name="Ellipse 1" class="cls-4" cx="6.5" cy="6.5" r="6.5" transform="translate(260 106)"/>
      <circle id="Ellipse_2" data-name="Ellipse 2" class="cls-4" cx="6.5" cy="6.5" r="6.5" transform="translate(283 106)"/>
      <circle id="Ellipse_3" data-name="Ellipse 3" class="cls-4" cx="6.5" cy="6.5" r="6.5" transform="translate(306 106)"/>
    </g>
    <g id="Vereinigungsmenge_1" data-name="Vereinigungsmenge 1" class="cls-5" transform="translate(247 69)">
      <path class="cls-6" d="M53.447,56.5H20A18.5,18.5,0,0,1,1.5,38V20A18.5,18.5,0,0,1,20,1.5H91.5v55H70.983L49,86.416Z"/>
      <path class="cls-7" d="M 53.74599838256836 74.89099884033203 L 68.56593322753906 54.72373199462891 L 69.46504211425781 53.50020599365234 L 70.9833984375 53.50020599365234 L 88.50030517578125 53.50020599365234 L 88.50030517578125 4.50030517578125 L 19.99980163574219 4.50030517578125 C 15.85982990264893 4.50030517578125 11.9675874710083 6.112562656402588 9.040072441101074 9.04007625579834 C 6.112558364868164 11.96759128570557 4.500301361083984 15.85983371734619 4.500301361083984 19.99980545043945 L 4.500301361083984 37.99980545043945 C 4.500301361083984 42.14019012451172 6.11257266998291 46.03271865844727 9.040101051330566 48.96036148071289 C 11.96757316589355 51.88792037963867 15.85980129241943 53.50020599365234 19.99980163574219 53.50020599365234 L 53.4471435546875 53.50020599365234 L 56.92611694335938 53.50020599365234 L 56.41453170776367 56.94136428833008 L 53.74599838256836 74.89099884033203 M 48.99959945678711 86.41620635986328 L 53.4471435546875 56.50020599365234 L 19.99980163574219 56.50020599365234 C 9.783000946044922 56.50020599365234 1.500301361083984 48.21750640869141 1.500301361083984 37.99980545043945 L 1.500301361083984 19.99980545043945 C 1.500301361083984 9.783005714416504 9.783000946044922 1.50030529499054 19.99980163574219 1.50030529499054 L 91.50030517578125 1.50030529499054 L 91.50030517578125 56.50020599365234 L 70.9833984375 56.50020599365234 L 48.99959945678711 86.41620635986328 Z"/>
    </g>
  </g>
</svg>
