<?xml version="1.0" standalone="no"?><!-- Generator: Gravit.io --><svg xmlns="http://www.w3.org/2000/svg" xmlns:xlink="http://www.w3.org/1999/xlink" style="isolation:isolate" viewBox="0 0 265.19 270.118" width="265.19" height="270.118"><defs><clipPath id="_clipPath_m39Rr9NJJ9VNpMZDskLaCaZfjWUZ16yk"><rect width="265.19" height="270.118"/></clipPath></defs><g clip-path="url(#_clipPath_m39Rr9NJJ9VNpMZDskLaCaZfjWUZ16yk)"><rect width="265.19" height="270.118" style="fill:rgb(74,134,232)"/><path d=" M 215.165 81.966 C 215.165 66.321 202.464 53.619 186.819 53.619 C 171.174 53.619 158.472 66.321 158.472 81.966 C 158.472 97.611 171.174 110.312 186.819 110.312 C 202.464 110.312 215.165 97.611 215.165 81.966 Z " fill="none" vector-effect="non-scaling-stroke" stroke-width="5" stroke="rgb(255,255,255)" stroke-linejoin="miter" stroke-linecap="square" stroke-miterlimit="3"/><g id="Group"><path d=" M 14.662 4.961 L 14.662 10.047 L 9.208 10.047 L 9.208 27.837 L 5.545 27.837 L 5.545 9.984 L 0.065 9.984 L 0.065 4.961 L 14.662 4.961 Z  M 27.067 27.837 L 27.067 18.262 L 20.223 18.262 L 20.223 27.837 L 16.56 27.837 L 16.56 4.961 L 20.223 4.961 L 20.223 14.275 L 27.067 14.275 L 27.067 4.961 L 30.73 4.961 L 30.73 27.837 L 27.067 27.837 Z  M 33.965 27.837 L 33.965 4.961 L 45.06 4.961 L 45.06 10.016 L 37.627 10.016 L 37.627 14.275 L 44.391 14.275 L 44.391 18.262 L 37.627 18.262 L 37.627 23.85 L 45.194 23.85 L 45.194 27.837 L 33.965 27.837 Z  M 52.412 27.837 L 52.412 19.34 L 46.263 4.961 L 50.621 4.961 L 54.043 13.556 L 54.417 15.974 L 54.551 15.974 L 54.952 13.491 L 58.267 4.961 L 62.197 4.961 L 56.075 19.307 L 56.075 27.837 L 52.412 27.837 Z " fill-rule="evenodd" fill="rgb(255,255,255)"/><path d=" M 86.082 23.85 L 86.082 27.837 L 72.197 27.837 L 72.197 4.961 L 76.491 4.961 L 76.491 23.85 L 86.082 23.85 Z  M 88.746 27.837 L 88.746 4.961 L 93.04 4.961 L 93.04 27.837 L 88.746 27.837 Z  M 100.061 4.961 L 104.449 18.392 L 105.014 22.281 L 105.17 22.281 L 105.797 18.36 L 109.997 4.961 L 114.511 4.961 L 106.361 28 L 103.29 28 L 95.078 4.961 L 100.061 4.961 Z  M 116.109 27.837 L 116.109 4.961 L 129.117 4.961 L 129.117 10 L 120.403 10 L 120.403 14.275 L 128.333 14.275 L 128.333 18.262 L 120.403 18.262 L 120.403 23.85 L 129.273 23.85 L 129.273 27.837 L 116.109 27.837 Z " fill-rule="evenodd" fill="rgb(255,255,255)"/><path d=" M 0 55.986 L 0 38.679 Q 0.352 38.5 0.758 38.492 L 0.758 38.492 L 0.758 38.492 Q 2.054 38.404 3.35 38.354 L 3.35 38.354 L 3.35 38.354 Q 4.646 38.304 5.868 38.279 L 5.868 38.279 L 5.868 38.279 Q 8.607 38.254 9.634 38.254 L 9.634 38.254 L 9.634 38.254 Q 12.03 38.254 14.353 38.479 L 14.353 38.479 L 14.353 38.479 Q 16.675 38.704 18.509 39.253 L 18.509 39.253 L 18.509 39.253 Q 20.343 39.803 21.443 40.764 L 21.443 40.764 L 21.443 40.764 Q 22.543 41.726 22.543 43.174 L 22.543 43.174 L 22.543 43.174 Q 22.543 45.322 20.587 46.671 L 20.587 46.671 L 20.587 46.671 Q 18.631 48.019 15.355 48.544 L 15.355 48.544 L 17.751 49.318 L 25.575 55.986 L 17.849 55.986 L 10.074 49.143 L 5.037 48.819 L 5.037 55.986 L 0 55.986 Z  M 10.123 41.301 L 10.123 41.301 L 10.123 41.301 Q 7.58 41.301 6.577 41.326 L 6.577 41.326 L 6.577 41.326 L 5.037 41.426 L 5.037 46.496 L 9.39 46.496 L 9.39 46.496 Q 12.177 46.496 13.839 45.847 L 13.839 45.847 L 13.839 45.847 Q 15.502 45.197 15.502 43.699 L 15.502 43.699 L 15.502 43.699 Q 15.502 42.575 14.133 41.938 L 14.133 41.938 L 14.133 41.938 Q 12.764 41.301 10.123 41.301 Z  M 29.975 55.986 L 29.975 38.504 L 36.674 38.504 L 36.674 55.986 L 29.975 55.986 Z  M 55.304 48.943 L 55.304 46.871 L 68.066 46.871 L 67.993 56.797 Q 66.08 57.094 63.152 58.406 C 59.723 59.281 55.221 58.639 51.535 57.594 C 46.834 56.26 44.498 53.064 43.324 51.341 L 43.324 51.341 L 43.324 51.341 Q 42.15 49.618 42.15 47.245 L 42.15 47.245 L 42.15 47.245 Q 42.15 44.773 43.544 43.037 L 43.544 43.037 L 43.544 43.037 Q 44.938 41.301 47.211 40.215 L 47.211 40.215 L 47.211 40.215 Q 49.485 39.129 52.321 38.642 L 52.321 38.642 L 52.321 38.642 Q 55.157 38.155 58.091 38.155 L 58.091 38.155 L 58.091 38.155 Q 61.025 38.155 63.249 38.379 L 63.249 38.379 L 63.249 38.379 Q 65.474 38.604 66.794 38.854 L 66.794 38.854 L 65.425 41.726 L 65.425 41.726 Q 64.203 41.476 62.687 41.339 L 62.687 41.339 L 62.687 41.339 Q 61.171 41.201 58.824 41.201 L 58.824 41.201 L 58.824 41.201 Q 56.722 41.201 54.961 41.526 L 54.961 41.526 L 54.961 41.526 Q 53.201 41.851 51.905 42.587 L 51.905 42.587 L 51.905 42.587 Q 50.61 43.324 49.901 44.473 L 49.901 44.473 L 49.901 44.473 Q 49.192 45.622 49.192 47.27 L 49.192 47.27 L 49.192 47.27 Q 49.192 48.843 49.876 49.98 L 49.876 49.98 L 49.876 49.98 Q 50.561 51.116 51.783 51.853 L 51.783 51.853 L 51.783 51.853 Q 53.005 52.59 54.644 52.939 L 54.644 52.939 L 54.644 52.939 Q 56.282 53.289 58.14 53.289 L 58.14 53.289 L 58.14 53.289 Q 59.411 53.289 60.633 53.127 L 60.633 53.127 L 60.633 53.127 Q 61.856 52.964 62.687 52.64 L 62.687 52.64 L 62.687 49.343 L 55.304 48.943 Z  M 92.221 57.25 L 92.221 48.669 L 79.703 48.669 L 79.703 56.797 C 77.153 56.195 75.137 56.086 73.004 56.141 L 73.004 38.504 L 79.703 38.504 L 79.703 45.622 L 92.221 45.622 L 92.221 38.504 L 98.919 38.504 L 98.919 63.984 C 97.504 61.978 95.291 59.753 92.221 57.25 Z  M 129.137 38.504 L 129.137 41.551 L 119.163 41.551 L 119.163 55.986 L 112.464 55.986 L 112.464 41.551 L 102.44 41.551 L 102.44 38.504 L 129.137 38.504 Z " fill-rule="evenodd" fill="rgb(255,255,255)"/><path d=" M 12.42 146.294 L 12.42 137.228 L 12.772 133.757 L 12.631 133.757 L 11.623 136.554 L 8.128 143.072 L 7.096 143.072 L 5.747 136.529 L 4.715 133.757 L 4.598 133.757 L 5.067 137.204 L 5.067 146.294 L 0.065 146.294 L 0.065 128.812 L 4.95 128.812 L 7.003 136.804 L 7.776 138.802 L 7.87 138.802 L 8.574 136.754 L 12.725 128.812 L 15.633 128.812 L 15.633 146.294 L 12.42 146.294 Z  M 18.447 146.294 L 18.447 128.812 L 28.18 128.812 L 28.18 131.859 L 21.66 131.859 L 21.66 135.93 L 27.594 135.93 L 27.594 138.977 L 21.66 138.977 L 21.66 143.247 L 28.297 143.247 L 28.297 146.294 L 18.447 146.294 Z  M 37.772 141.599 L 37.772 141.599 L 37.772 141.599 Q 37.772 140.8 37.221 140.3 L 37.221 140.3 L 37.221 140.3 Q 36.67 139.801 35.837 139.389 L 35.837 139.389 L 35.837 139.389 Q 35.004 138.977 34.031 138.54 L 34.031 138.54 L 34.031 138.54 Q 33.058 138.103 32.225 137.466 L 32.225 137.466 L 32.225 137.466 Q 31.393 136.829 30.842 135.88 L 30.842 135.88 L 30.842 135.88 Q 30.291 134.931 30.291 133.457 L 30.291 133.457 L 30.291 133.457 Q 30.291 132.184 30.689 131.247 L 30.689 131.247 L 30.689 131.247 Q 31.088 130.311 31.827 129.686 L 31.827 129.686 L 31.827 129.686 Q 32.565 129.062 33.574 128.762 L 33.574 128.762 L 33.574 128.762 Q 34.582 128.463 35.825 128.463 L 35.825 128.463 L 35.825 128.463 Q 37.256 128.463 38.522 128.725 L 38.522 128.725 L 38.522 128.725 Q 39.789 128.987 40.609 129.486 L 40.609 129.486 L 39.601 132.359 L 39.601 132.359 Q 39.085 132.009 38.053 131.722 L 38.053 131.722 L 38.053 131.722 Q 37.021 131.434 35.825 131.434 L 35.825 131.434 L 35.825 131.434 Q 34.7 131.434 34.101 131.909 L 34.101 131.909 L 34.101 131.909 Q 33.503 132.383 33.503 133.183 L 33.503 133.183 L 33.503 133.183 Q 33.503 133.932 34.055 134.431 L 34.055 134.431 L 34.055 134.431 Q 34.606 134.931 35.438 135.355 L 35.438 135.355 L 35.438 135.355 Q 36.271 135.78 37.244 136.23 L 37.244 136.23 L 37.244 136.23 Q 38.217 136.679 39.05 137.316 L 39.05 137.316 L 39.05 137.316 Q 39.882 137.953 40.434 138.889 L 40.434 138.889 L 40.434 138.889 Q 40.985 139.826 40.985 141.224 L 40.985 141.224 L 40.985 141.224 Q 40.985 142.623 40.551 143.634 L 40.551 143.634 L 40.551 143.634 Q 40.117 144.646 39.331 145.32 L 39.331 145.32 L 39.331 145.32 Q 38.546 145.994 37.432 146.319 L 37.432 146.319 L 37.432 146.319 Q 36.318 146.644 34.981 146.644 L 34.981 146.644 L 34.981 146.644 Q 33.222 146.644 31.885 146.294 L 31.885 146.294 L 31.885 146.294 Q 30.549 145.945 29.915 145.595 L 29.915 145.595 L 30.947 142.673 L 30.947 142.673 Q 31.205 142.823 31.616 142.998 L 31.616 142.998 L 31.616 142.998 Q 32.026 143.172 32.542 143.322 L 32.542 143.322 L 32.542 143.322 Q 33.058 143.472 33.632 143.572 L 33.632 143.572 L 33.632 143.572 Q 34.207 143.672 34.817 143.672 L 34.817 143.672 L 34.817 143.672 Q 36.247 143.672 37.01 143.16 L 37.01 143.16 L 37.01 143.16 Q 37.772 142.648 37.772 141.599 Z  M 50.201 141.599 L 50.201 141.599 L 50.201 141.599 Q 50.201 140.8 49.65 140.3 L 49.65 140.3 L 49.65 140.3 Q 49.099 139.801 48.267 139.389 L 48.267 139.389 L 48.267 139.389 Q 47.434 138.977 46.461 138.54 L 46.461 138.54 L 46.461 138.54 Q 45.488 138.103 44.655 137.466 L 44.655 137.466 L 44.655 137.466 Q 43.822 136.829 43.271 135.88 L 43.271 135.88 L 43.271 135.88 Q 42.72 134.931 42.72 133.457 L 42.72 133.457 L 42.72 133.457 Q 42.72 132.184 43.119 131.247 L 43.119 131.247 L 43.119 131.247 Q 43.518 130.311 44.256 129.686 L 44.256 129.686 L 44.256 129.686 Q 44.995 129.062 46.003 128.762 L 46.003 128.762 L 46.003 128.762 Q 47.012 128.463 48.255 128.463 L 48.255 128.463 L 48.255 128.463 Q 49.685 128.463 50.952 128.725 L 50.952 128.725 L 50.952 128.725 Q 52.218 128.987 53.039 129.486 L 53.039 129.486 L 52.031 132.359 L 52.031 132.359 Q 51.515 132.009 50.483 131.722 L 50.483 131.722 L 50.483 131.722 Q 49.451 131.434 48.255 131.434 L 48.255 131.434 L 48.255 131.434 Q 47.129 131.434 46.531 131.909 L 46.531 131.909 L 46.531 131.909 Q 45.933 132.383 45.933 133.183 L 45.933 133.183 L 45.933 133.183 Q 45.933 133.932 46.484 134.431 L 46.484 134.431 L 46.484 134.431 Q 47.035 134.931 47.868 135.355 L 47.868 135.355 L 47.868 135.355 Q 48.7 135.78 49.674 136.23 L 49.674 136.23 L 49.674 136.23 Q 50.647 136.679 51.48 137.316 L 51.48 137.316 L 51.48 137.316 Q 52.312 137.953 52.863 138.889 L 52.863 138.889 L 52.863 138.889 Q 53.414 139.826 53.414 141.224 L 53.414 141.224 L 53.414 141.224 Q 53.414 142.623 52.981 143.634 L 52.981 143.634 L 52.981 143.634 Q 52.547 144.646 51.761 145.32 L 51.761 145.32 L 51.761 145.32 Q 50.975 145.994 49.861 146.319 L 49.861 146.319 L 49.861 146.319 Q 48.747 146.644 47.411 146.644 L 47.411 146.644 L 47.411 146.644 Q 45.652 146.644 44.315 146.294 L 44.315 146.294 L 44.315 146.294 Q 42.978 145.945 42.345 145.595 L 42.345 145.595 L 43.377 142.673 L 43.377 142.673 Q 43.635 142.823 44.045 142.998 L 44.045 142.998 L 44.045 142.998 Q 44.456 143.172 44.972 143.322 L 44.972 143.322 L 44.972 143.322 Q 45.488 143.472 46.062 143.572 L 46.062 143.572 L 46.062 143.572 Q 46.637 143.672 47.246 143.672 L 47.246 143.672 L 47.246 143.672 Q 48.677 143.672 49.439 143.16 L 49.439 143.16 L 49.439 143.16 Q 50.201 142.648 50.201 141.599 Z  M 55.549 146.294 L 55.549 128.812 L 65.281 128.812 L 65.281 131.859 L 58.761 131.859 L 58.761 135.93 L 64.695 135.93 L 64.695 138.977 L 58.761 138.977 L 58.761 143.247 L 65.398 143.247 L 65.398 146.294 L 55.549 146.294 Z  M 78.039 146.419 L 71.871 137.179 L 70.581 134.431 L 70.464 134.431 L 70.839 137.179 L 70.839 146.294 L 67.791 146.294 L 67.791 128.687 L 70.136 128.687 L 76.351 138.003 L 77.594 140.675 L 77.711 140.675 L 77.336 138.003 L 77.336 128.812 L 80.384 128.812 L 80.384 146.419 L 78.039 146.419 Z  M 88.991 139.251 L 88.991 137.179 L 95.112 137.179 L 95.112 144.971 L 95.112 144.971 Q 94.127 145.845 92.755 146.244 L 92.755 146.244 L 92.755 146.244 Q 91.383 146.644 90.047 146.644 L 90.047 146.644 L 90.047 146.644 Q 88.475 146.644 87.127 146.119 L 87.127 146.119 L 87.127 146.119 Q 85.778 145.595 84.793 144.484 L 84.793 144.484 L 84.793 144.484 Q 83.808 143.372 83.246 141.649 L 83.246 141.649 L 83.246 141.649 Q 82.683 139.926 82.683 137.553 L 82.683 137.553 L 82.683 137.553 Q 82.683 135.081 83.351 133.345 L 83.351 133.345 L 83.351 133.345 Q 84.019 131.609 85.11 130.523 L 85.11 130.523 L 85.11 130.523 Q 86.201 129.437 87.561 128.95 L 87.561 128.95 L 87.561 128.95 Q 88.921 128.463 90.328 128.463 L 90.328 128.463 L 90.328 128.463 Q 91.735 128.463 92.802 128.687 L 92.802 128.687 L 92.802 128.687 Q 93.869 128.912 94.503 129.162 L 94.503 129.162 L 93.846 132.034 L 93.846 132.034 Q 93.26 131.784 92.533 131.647 L 92.533 131.647 L 92.533 131.647 Q 91.806 131.509 90.68 131.509 L 90.68 131.509 L 90.68 131.509 Q 89.671 131.509 88.827 131.834 L 88.827 131.834 L 88.827 131.834 Q 87.983 132.159 87.361 132.895 L 87.361 132.895 L 87.361 132.895 Q 86.74 133.632 86.4 134.781 L 86.4 134.781 L 86.4 134.781 Q 86.06 135.93 86.06 137.578 L 86.06 137.578 L 86.06 137.578 Q 86.06 139.152 86.388 140.288 L 86.388 140.288 L 86.388 140.288 Q 86.716 141.424 87.303 142.161 L 87.303 142.161 L 87.303 142.161 Q 87.889 142.898 88.675 143.247 L 88.675 143.247 L 88.675 143.247 Q 89.46 143.597 90.352 143.597 L 90.352 143.597 L 90.352 143.597 Q 90.961 143.597 91.548 143.435 L 91.548 143.435 L 91.548 143.435 Q 92.134 143.272 92.533 142.948 L 92.533 142.948 L 92.533 139.651 L 88.991 139.251 Z  M 97.481 146.294 L 97.481 128.812 L 107.214 128.812 L 107.214 131.859 L 100.694 131.859 L 100.694 135.93 L 106.627 135.93 L 106.627 138.977 L 100.694 138.977 L 100.694 143.247 L 107.331 143.247 L 107.331 146.294 L 97.481 146.294 Z  M 109.723 146.294 L 109.723 128.987 L 109.723 128.987 Q 110.262 128.887 110.884 128.8 L 110.884 128.8 L 110.884 128.8 Q 111.505 128.712 112.127 128.662 L 112.127 128.662 L 112.127 128.662 Q 112.748 128.612 113.335 128.587 L 113.335 128.587 L 113.335 128.587 Q 113.921 128.562 114.414 128.562 L 114.414 128.562 L 114.414 128.562 Q 115.563 128.562 116.677 128.787 L 116.677 128.787 L 116.677 128.787 Q 117.791 129.012 118.67 129.561 L 118.67 129.561 L 118.67 129.561 Q 119.55 130.111 120.077 131.072 L 120.077 131.072 L 120.077 131.072 Q 120.605 132.034 120.605 133.482 L 120.605 133.482 L 120.605 133.482 Q 120.605 135.63 119.667 136.979 L 119.667 136.979 L 119.667 136.979 Q 118.729 138.327 117.157 138.852 L 117.157 138.852 L 118.307 139.626 L 120.207 143.072 L 118.353 146.294 L 117.279 142.106 L 115.887 141.888 L 115.206 141.781 L 112.551 146.319 L 109.723 146.294 Z  M 114.648 131.609 L 114.648 131.609 L 114.648 131.609 Q 114.156 131.609 113.675 131.634 L 113.675 131.634 L 113.675 131.634 Q 112.809 131.659 112.551 131.734 L 112.551 131.734 L 112.551 136.804 L 114.296 136.804 L 114.296 136.804 Q 115.633 136.804 116.43 136.155 L 116.43 136.155 L 116.43 136.155 Q 117.228 135.505 117.228 134.007 L 117.228 134.007 L 117.228 134.007 Q 117.228 132.883 116.571 132.246 L 116.571 132.246 L 116.571 132.246 Q 115.914 131.609 114.648 131.609 Z " fill-rule="evenodd" fill="rgb(255,255,255)"/><path d=" M 9.692 174.092 L 8.476 170.221 L 5.098 170.221 L 5.067 174.204 L 0.065 174.092 L 5.156 156.485 L 7.348 156.485 L 12.816 174.092 L 9.692 174.092 Z  M 5.677 163.603 L 4.57 167.474 L 7.825 167.474 L 6.697 163.578 L 6.241 160.83 L 6.133 160.83 L 5.677 163.603 Z  M 23.602 174.217 L 17.894 164.976 L 16.701 162.229 L 16.592 162.229 L 16.94 164.976 L 16.94 174.092 L 14.119 174.092 L 14.119 156.485 L 16.289 156.485 L 22.039 165.8 L 23.189 168.473 L 23.298 168.473 L 22.951 165.8 L 22.951 156.61 L 25.772 156.61 L 25.772 174.217 L 23.602 174.217 Z  M 28.376 174.117 L 28.376 156.61 L 28.376 156.61 Q 28.832 156.535 29.407 156.485 L 29.407 156.485 L 29.407 156.485 Q 29.982 156.435 30.589 156.41 L 30.589 156.41 L 30.589 156.41 Q 31.197 156.385 31.772 156.373 L 31.772 156.373 L 31.772 156.373 Q 32.347 156.36 32.803 156.36 L 32.803 156.36 L 32.803 156.36 Q 34.821 156.36 36.253 157.009 L 36.253 157.009 L 36.253 157.009 Q 37.686 157.659 38.575 158.833 L 38.575 158.833 L 38.575 158.833 Q 39.465 160.006 39.877 161.63 L 39.877 161.63 L 39.877 161.63 Q 40.29 163.253 40.29 165.201 L 40.29 165.201 L 40.29 165.201 Q 40.29 166.974 39.899 168.622 L 39.899 168.622 L 39.899 168.622 Q 39.508 170.271 38.597 171.544 L 38.597 171.544 L 38.597 171.544 Q 37.686 172.818 36.199 173.592 L 36.199 173.592 L 36.199 173.592 Q 34.713 174.367 32.521 174.367 L 32.521 174.367 L 32.521 174.367 Q 32.174 174.367 31.599 174.342 L 31.599 174.342 L 31.599 174.342 Q 31.023 174.317 30.405 174.279 L 30.405 174.279 L 30.405 174.279 Q 29.787 174.242 29.222 174.204 L 29.222 174.204 L 29.222 174.204 Q 28.658 174.167 28.376 174.117 L 28.376 174.117 Z  M 33.042 159.407 L 33.042 159.407 L 33.042 159.407 Q 32.564 159.407 32.076 159.432 L 32.076 159.432 L 32.076 159.432 Q 31.588 159.457 31.349 159.507 L 31.349 159.507 L 31.349 171.22 L 31.349 171.22 Q 31.436 171.245 31.642 171.257 L 31.642 171.257 L 31.642 171.257 Q 31.848 171.27 32.087 171.282 L 32.087 171.282 L 32.087 171.282 Q 32.326 171.295 32.543 171.307 L 32.543 171.307 L 32.543 171.307 Q 32.76 171.32 32.868 171.32 L 32.868 171.32 L 32.868 171.32 Q 34.127 171.32 34.962 170.808 L 34.962 170.808 L 34.962 170.808 Q 35.798 170.296 36.286 169.447 L 36.286 169.447 L 36.286 169.447 Q 36.774 168.597 36.969 167.486 L 36.969 167.486 L 36.969 167.486 Q 37.165 166.375 37.165 165.201 L 37.165 165.201 L 37.165 165.201 Q 37.165 164.177 36.991 163.141 L 36.991 163.141 L 36.991 163.141 Q 36.818 162.104 36.351 161.28 L 36.351 161.28 L 36.351 161.28 Q 35.884 160.456 35.082 159.931 L 35.082 159.931 L 35.082 159.931 Q 34.279 159.407 33.042 159.407 Z " fill-rule="evenodd" fill="rgb(255,255,255)"/><path d=" M 51.1 174.367 L 51.1 156.86 L 51.1 156.86 Q 51.492 156.785 51.986 156.735 L 51.986 156.735 L 51.986 156.735 Q 52.48 156.685 53.002 156.66 L 53.002 156.66 L 53.002 156.66 Q 53.524 156.635 54.018 156.622 L 54.018 156.622 L 54.018 156.622 Q 54.512 156.61 54.903 156.61 L 54.903 156.61 L 54.903 156.61 Q 56.637 156.61 57.868 157.259 L 57.868 157.259 L 57.868 157.259 Q 59.098 157.908 59.863 159.082 L 59.863 159.082 L 59.863 159.082 Q 60.627 160.256 60.981 161.879 L 60.981 161.879 L 60.981 161.879 Q 61.336 163.503 61.336 165.451 L 61.336 165.451 L 61.336 165.451 Q 61.336 167.224 61 168.872 L 61 168.872 L 61 168.872 Q 60.664 170.52 59.881 171.794 L 59.881 171.794 L 59.881 171.794 Q 59.098 173.068 57.821 173.842 L 57.821 173.842 L 57.821 173.842 Q 56.544 174.616 54.661 174.616 L 54.661 174.616 L 54.661 174.616 Q 54.363 174.616 53.869 174.591 L 53.869 174.591 L 53.869 174.591 Q 53.375 174.566 52.843 174.529 L 52.843 174.529 L 52.843 174.529 Q 52.312 174.491 51.827 174.454 L 51.827 174.454 L 51.827 174.454 Q 51.342 174.416 51.1 174.367 L 51.1 174.367 Z  M 55.108 159.657 L 55.108 159.657 L 55.108 159.657 Q 54.698 159.657 54.279 159.682 L 54.279 159.682 L 54.279 159.682 Q 53.859 159.707 53.654 159.757 L 53.654 159.757 L 53.654 171.47 L 53.654 171.47 Q 53.729 171.494 53.906 171.507 L 53.906 171.507 L 53.906 171.507 Q 54.083 171.519 54.288 171.532 L 54.288 171.532 L 54.288 171.532 Q 54.493 171.544 54.68 171.557 L 54.68 171.557 L 54.68 171.557 Q 54.866 171.569 54.959 171.569 L 54.959 171.569 L 54.959 171.569 Q 56.041 171.569 56.758 171.057 L 56.758 171.057 L 56.758 171.057 Q 57.476 170.545 57.896 169.696 L 57.896 169.696 L 57.896 169.696 Q 58.315 168.847 58.483 167.736 L 58.483 167.736 L 58.483 167.736 Q 58.651 166.625 58.651 165.451 L 58.651 165.451 L 58.651 165.451 Q 58.651 164.427 58.502 163.39 L 58.502 163.39 L 58.502 163.39 Q 58.353 162.354 57.952 161.53 L 57.952 161.53 L 57.952 161.53 Q 57.551 160.706 56.861 160.181 L 56.861 160.181 L 56.861 160.181 Q 56.171 159.657 55.108 159.657 Z  M 62.753 165.601 L 62.753 165.601 L 62.753 165.601 Q 62.753 161.23 64.188 158.87 L 64.188 158.87 L 64.188 158.87 Q 65.624 156.51 68.29 156.51 L 68.29 156.51 L 68.29 156.51 Q 69.688 156.51 70.732 157.159 L 70.732 157.159 L 70.732 157.159 Q 71.776 157.809 72.466 159.007 L 72.466 159.007 L 72.466 159.007 Q 73.156 160.206 73.492 161.879 L 73.492 161.879 L 73.492 161.879 Q 73.827 163.553 73.827 165.601 L 73.827 165.601 L 73.827 165.601 Q 73.827 169.971 72.382 172.331 L 72.382 172.331 L 72.382 172.331 Q 70.937 174.691 68.29 174.691 L 68.29 174.691 L 68.29 174.691 Q 66.873 174.691 65.829 174.042 L 65.829 174.042 L 65.829 174.042 Q 64.785 173.393 64.104 172.194 L 64.104 172.194 L 64.104 172.194 Q 63.424 170.995 63.088 169.322 L 63.088 169.322 L 63.088 169.322 Q 62.753 167.648 62.753 165.601 Z  M 65.437 165.601 L 65.437 165.601 L 65.437 165.601 Q 65.437 166.924 65.605 168.036 L 65.605 168.036 L 65.605 168.036 Q 65.773 169.147 66.118 169.946 L 66.118 169.946 L 66.118 169.946 Q 66.463 170.745 67.003 171.195 L 67.003 171.195 L 67.003 171.195 Q 67.544 171.644 68.29 171.644 L 68.29 171.644 L 68.29 171.644 Q 69.651 171.644 70.397 170.221 L 70.397 170.221 L 70.397 170.221 Q 71.142 168.797 71.142 165.601 L 71.142 165.601 L 71.142 165.601 Q 71.142 164.327 70.984 163.228 L 70.984 163.228 L 70.984 163.228 Q 70.825 162.129 70.49 161.305 L 70.49 161.305 L 70.49 161.305 Q 70.154 160.481 69.614 160.019 L 69.614 160.019 L 69.614 160.019 Q 69.073 159.557 68.29 159.557 L 68.29 159.557 L 68.29 159.557 Q 66.929 159.557 66.183 161.018 L 66.183 161.018 L 66.183 161.018 Q 65.437 162.479 65.437 165.601 Z  M 83.802 174.466 L 78.898 165.226 L 77.873 162.479 L 77.78 162.479 L 78.078 165.226 L 78.078 174.342 L 75.654 174.342 L 75.654 156.735 L 77.519 156.735 L 82.459 166.05 L 83.447 168.722 L 83.541 168.722 L 83.242 166.05 L 83.242 156.86 L 85.666 156.86 L 85.666 174.466 L 83.802 174.466 Z  M 90.439 156.36 L 91.558 160.206 L 90.215 160.206 L 87.903 157.109 L 87.903 156.36 L 90.439 156.36 Z  M 112.223 156.86 L 110.426 159.906 L 104.77 159.906 L 96.192 174.672 L 96.192 174.672 L 96.192 159.906 L 92.881 159.906 L 92.881 156.86 L 112.223 156.86 Z " fill-rule="evenodd" fill="rgb(255,255,255)"/><path d=" M 25.243 198.659 L 10.09 189.418 L 4.433 186.671 L 4.145 186.671 L 5.067 189.418 L 5.067 198.534 L 0.065 198.534 L 0.065 180.927 L 5.098 180.927 L 21.094 190.242 L 24.148 192.915 L 24.436 192.915 L 23.514 190.242 L 23.514 181.052 L 31.004 181.052 L 31.004 198.659 L 25.243 198.659 Z " fill="rgb(255,255,255)"/><path d=" M 37.918 199.891 L 37.918 181.052 L 61.828 181.052 L 61.828 184.099 L 45.811 184.099 L 45.811 188.17 L 60.388 188.17 L 60.388 191.216 L 45.811 191.216 L 45.811 194.891 L 62.116 194.891 L 62.116 199.891 L 37.918 199.891 Z " fill="rgb(255,255,255)"/><path d=" M 67.993 199.932 L 67.993 181.052 L 91.903 181.052 L 91.903 184.099 L 75.886 184.099 L 75.886 188.17 L 90.463 188.17 L 90.463 191.216 L 75.886 191.216 L 75.886 194.941 L 92.191 194.941 L 92.191 199.932 L 67.993 199.932 Z " fill="rgb(255,255,255)"/><path d=" M 98.068 198.559 L 98.068 181.052 Q 99.278 180.977 100.805 180.927 Q 102.332 180.877 103.945 180.852 Q 105.558 180.827 107.085 180.815 Q 108.612 180.802 109.822 180.802 Q 115.18 180.802 118.982 181.452 Q 122.785 182.101 125.147 183.275 Q 127.509 184.448 128.604 186.072 Q 129.699 187.695 129.699 189.643 Q 129.699 192.77 128.662 194.418 Q 127.625 196.066 125.205 197.34 Q 122.785 198.614 118.838 199.388 Q 114.892 200.162 109.073 200.162 Q 108.151 200.162 106.624 200.137 Q 105.097 200.112 103.455 200.075 Q 101.813 200.037 100.315 200 Q 98.817 199.962 98.068 199.912 L 98.068 198.559 Z  M 110.455 183.849 Q 109.188 183.849 107.891 183.874 Q 106.595 183.899 105.961 183.949 L 105.961 195.662 L 105.961 194.893 Q 106.192 194.918 106.739 194.93 Q 107.286 194.943 107.92 194.955 Q 108.554 194.968 109.13 194.98 Q 109.706 194.993 109.994 194.993 Q 113.336 194.993 115.554 194.481 Q 117.772 193.969 119.069 193.119 Q 120.365 192.27 120.884 191.159 Q 121.402 190.817 121.402 189.643 Q 121.402 188.619 120.941 187.583 Q 120.48 186.546 119.242 185.722 Q 118.003 184.898 115.871 184.374 Q 113.739 183.849 110.455 183.849 Z " fill-rule="evenodd" fill="rgb(255,255,255)"/><path d=" M 10.657 226.009 L 10.657 216.943 L 10.952 213.472 L 10.834 213.472 L 9.99 216.269 L 7.066 222.787 L 6.202 222.787 L 5.636 216.244 L 4.772 213.472 L 4.674 213.472 L 5.067 216.918 L 5.067 226.009 L 0 226.009 L 0 208.527 L 4.969 208.527 L 6.124 216.519 L 6.771 218.517 L 6.85 218.517 L 7.439 216.469 L 10.913 208.527 L 13.346 208.527 L 13.346 226.009 L 10.657 226.009 Z " fill="rgb(255,255,255)"/><path d=" M 23.16 219.565 L 23.16 208.527 L 25.711 208.527 L 25.711 219.815 L 25.711 219.815 Q 25.711 221.513 25.358 222.737 L 25.358 222.737 L 25.358 222.737 Q 25.005 223.961 24.377 224.76 L 24.377 224.76 L 24.377 224.76 Q 23.749 225.559 22.846 225.934 L 22.846 225.934 L 22.846 225.934 Q 21.943 226.308 20.863 226.308 L 20.863 226.308 L 20.863 226.308 Q 15.643 226.308 15.643 220.24 L 15.643 220.24 L 15.643 208.527 L 18.332 208.527 L 18.332 219.565 L 18.332 219.565 Q 18.332 220.589 18.479 221.301 L 18.479 221.301 L 18.479 221.301 Q 18.626 222.013 18.94 222.45 L 18.94 222.45 L 18.94 222.45 Q 19.254 222.887 19.725 223.074 L 19.725 223.074 L 19.725 223.074 Q 20.196 223.262 20.824 223.262 L 20.824 223.262 L 20.824 223.262 Q 22.061 223.262 22.61 222.388 L 22.61 222.388 L 22.61 222.388 Q 23.16 221.513 23.16 219.565 L 23.16 219.565 Z " fill="rgb(255,255,255)"/><path d=" M 36.761 222.508 L 37.311 225.293 L 37.311 225.293 Q 36.683 225.863 35.711 226.111 L 35.711 226.111 L 35.711 226.111 Q 34.74 226.358 33.719 226.358 L 33.719 226.358 L 33.719 226.358 Q 32.483 226.358 31.374 225.871 L 31.374 225.871 L 31.374 225.871 Q 30.265 225.384 29.421 224.298 L 29.421 224.298 L 29.421 224.298 Q 28.577 223.212 28.076 221.476 L 28.076 221.476 L 28.076 221.476 Q 27.576 219.74 27.576 217.268 L 27.576 217.268 L 27.576 217.268 Q 27.576 214.695 28.135 212.96 L 28.135 212.96 L 28.135 212.96 Q 28.695 211.224 29.588 210.163 L 29.588 210.163 L 29.588 210.163 Q 30.481 209.101 31.58 208.639 L 31.58 208.639 L 31.58 208.639 Q 32.679 208.177 33.778 208.177 L 33.778 208.177 L 33.778 208.177 Q 34.956 208.177 35.77 208.377 L 35.77 208.377 L 35.77 208.377 Q 36.585 208.577 37.115 208.851 L 37.115 208.851 L 36.585 211.748 L 36.585 211.748 Q 36.133 211.474 35.515 211.349 L 35.515 211.349 L 35.515 211.349 Q 34.897 211.224 34.013 211.224 L 34.013 211.224 L 34.013 211.224 Q 32.384 211.224 31.393 212.701 L 31.393 212.701 L 31.393 212.701 Q 30.402 214.177 30.402 217.28 L 30.402 217.28 L 30.402 217.28 Q 30.402 218.632 30.638 219.745 L 30.638 219.745 L 30.638 219.745 Q 30.873 220.859 31.354 221.647 L 31.354 221.647 L 31.354 221.647 Q 31.835 222.436 32.551 222.874 L 32.551 222.874 L 32.551 222.874 Q 33.268 223.312 34.21 223.312 L 34.21 223.312 L 34.21 223.312 Q 35.093 223.312 35.701 223.085 L 35.701 223.085 L 35.701 223.085 Q 36.31 222.859 36.761 222.508 L 36.761 222.508 Z " fill="rgb(255,255,255)"/><path d=" M 46.921 226.009 L 46.921 218.691 L 41.748 218.691 L 41.748 226.009 L 38.979 226.009 L 38.979 208.527 L 41.748 208.527 L 41.748 215.644 L 46.921 215.644 L 46.921 208.527 L 51.911 208.527 L 51.94 226.009 L 46.921 226.009 Z " fill="rgb(255,255,255)"/><path d=" M 16.091 255.112 L 16.091 255.112 L 16.091 255.112 Q 16.091 253.527 14.966 252.536 L 14.966 252.536 L 14.966 252.536 Q 13.842 251.545 12.144 250.728 L 12.144 250.728 L 12.144 250.728 Q 10.446 249.911 8.46 249.044 L 8.46 249.044 L 8.46 249.044 Q 6.475 248.177 4.777 246.914 L 4.777 246.914 L 4.777 246.914 Q 3.079 245.651 1.954 243.768 L 1.954 243.768 L 1.954 243.768 Q 0.83 241.886 0.83 238.963 L 0.83 238.963 L 0.83 238.963 Q 0.83 236.437 1.643 234.579 L 1.643 234.579 L 1.643 234.579 Q 2.457 232.722 3.964 231.483 L 3.964 231.483 L 3.964 231.483 Q 5.47 230.245 7.528 229.65 L 7.528 229.65 L 7.528 229.65 Q 9.585 229.056 12.12 229.056 L 12.12 229.056 L 12.12 229.056 Q 15.038 229.056 17.621 229.576 L 17.621 229.576 L 17.621 229.576 Q 20.205 230.096 21.879 231.087 L 21.879 231.087 L 19.822 236.784 L 19.822 236.784 Q 18.77 236.09 16.665 235.52 L 16.665 235.52 L 16.665 235.52 Q 14.56 234.951 12.12 234.951 L 12.12 234.951 L 12.12 234.951 Q 9.824 234.951 8.604 235.892 L 8.604 235.892 L 8.604 235.892 Q 7.384 236.833 7.384 238.418 L 7.384 238.418 L 7.384 238.418 Q 7.384 239.904 8.508 240.895 L 8.508 240.895 L 8.508 240.895 Q 9.632 241.886 11.331 242.728 L 11.331 242.728 L 11.331 242.728 Q 13.029 243.57 15.014 244.462 L 15.014 244.462 L 15.014 244.462 Q 17 245.353 18.698 246.617 L 18.698 246.617 L 18.698 246.617 Q 20.396 247.88 21.52 249.737 L 21.52 249.737 L 21.52 249.737 Q 22.644 251.595 22.644 254.369 L 22.644 254.369 L 22.644 254.369 Q 22.644 257.143 21.759 259.149 L 21.759 259.149 L 21.759 259.149 Q 20.874 261.156 19.272 262.493 L 19.272 262.493 L 19.272 262.493 Q 17.669 263.831 15.397 264.475 L 15.397 264.475 L 15.397 264.475 Q 13.125 265.118 10.398 265.118 L 10.398 265.118 L 10.398 265.118 L 0.065 265.112 L 0.065 260.172 Q 7.887 260.172 10.063 260.109 Q 12.239 260.047 14.717 258.484 Q 16.091 257.193 16.091 255.112 Z  M 26.998 265.094 L 26.998 230.096 L 26.998 230.096 Q 29.007 229.7 31.423 229.477 L 31.423 229.477 L 31.423 229.477 Q 33.839 229.254 36.231 229.254 L 36.231 229.254 L 36.231 229.254 Q 38.718 229.254 41.23 229.675 L 41.23 229.675 L 41.23 229.675 Q 43.741 230.096 45.75 231.359 L 45.75 231.359 L 45.75 231.359 Q 47.76 232.623 49.027 234.876 L 49.027 234.876 L 49.027 234.876 Q 50.295 237.13 50.295 240.747 L 50.295 240.747 L 50.295 240.747 Q 50.295 244.016 49.195 246.27 L 49.195 246.27 L 49.195 246.27 Q 48.095 248.524 46.277 249.96 L 46.277 249.96 L 46.277 249.96 Q 44.459 251.397 42.139 252.041 L 42.139 252.041 L 42.139 252.041 Q 39.818 252.685 37.331 252.685 L 37.331 252.685 L 37.331 252.685 Q 37.092 252.685 36.565 252.685 L 36.565 252.685 L 36.565 252.685 Q 36.039 252.685 35.465 252.66 L 35.465 252.66 L 35.465 252.66 Q 34.891 252.635 34.341 252.586 L 34.341 252.586 L 34.341 252.586 Q 33.791 252.536 33.552 252.487 L 33.552 252.487 L 33.552 265.094 L 26.998 265.094 Z  M 36.757 235.099 L 36.757 235.099 L 36.757 235.099 Q 35.8 235.099 34.939 235.174 L 34.939 235.174 L 34.939 235.174 Q 34.078 235.248 33.552 235.347 L 33.552 235.347 L 33.552 246.592 L 33.552 246.592 Q 33.743 246.641 34.126 246.691 L 34.126 246.691 L 34.126 246.691 Q 34.508 246.74 34.939 246.765 L 34.939 246.765 L 34.939 246.765 Q 35.37 246.79 35.776 246.79 L 35.776 246.79 L 35.776 246.79 Q 36.183 246.79 36.374 246.79 L 36.374 246.79 L 36.374 246.79 Q 37.666 246.79 38.933 246.542 L 38.933 246.542 L 38.933 246.542 Q 40.201 246.295 41.206 245.626 L 41.206 245.626 L 41.206 245.626 Q 42.21 244.957 42.808 243.768 L 42.808 243.768 L 42.808 243.768 Q 43.406 242.579 43.406 240.647 L 43.406 240.647 L 43.406 240.647 Q 43.406 239.013 42.832 237.948 L 42.832 237.948 L 42.832 237.948 Q 42.258 236.883 41.325 236.239 L 41.325 236.239 L 41.325 236.239 Q 40.393 235.595 39.197 235.347 L 39.197 235.347 L 39.197 235.347 Q 38.001 235.099 36.757 235.099 Z  M 73.714 265.094 L 70.866 256.747 L 60.58 256.747 L 58.045 265.157 L 51.535 265.094 L 63.546 228.891 L 68.378 228.891 L 80.433 265.094 L 73.714 265.094 Z  M 64.694 243.62 L 62.255 251.298 L 69.431 251.298 L 66.943 243.57 L 65.938 238.121 L 65.699 238.121 L 64.694 243.62 Z  M 106.176 265.094 Q 99.712 265.118 97.225 265.118 L 97.225 265.118 L 97.225 265.118 Q 94.211 265.118 91.508 264.153 L 91.508 264.153 L 91.508 264.153 Q 88.805 263.187 86.748 261.032 L 86.748 261.032 L 86.748 261.032 Q 84.691 258.877 83.471 255.434 L 83.471 255.434 L 83.471 255.434 Q 82.251 251.991 82.251 247.087 L 82.251 247.087 L 82.251 247.087 Q 82.251 241.985 83.615 238.542 L 83.615 238.542 L 83.615 238.542 Q 84.978 235.099 87.155 232.994 L 87.155 232.994 L 87.155 232.994 Q 89.331 230.889 92.01 229.972 L 92.01 229.972 L 92.01 229.972 Q 94.689 229.056 97.368 229.056 L 97.368 229.056 L 97.368 229.056 L 104.629 228.937 L 104.629 234 Q 95.286 233.969 91.556 238.028 L 91.556 238.028 L 91.556 238.028 Q 89.14 240.957 89.14 247.112 L 89.14 247.112 L 89.14 247.112 Q 89.14 249.792 89.714 252.001 L 89.714 252.001 L 89.714 252.001 Q 90.288 254.21 91.46 255.774 L 91.46 255.774 L 91.46 255.774 Q 92.926 258.15 97.77 259.075 Q 102.614 260 106.176 260.063 L 106.176 265.094 Z  M 110.045 265.063 L 110.045 228.937 L 129.898 228.907 L 129.898 233.907 L 116.599 233.907 L 116.599 243.867 L 128.702 243.867 L 128.702 249.911 L 116.599 249.911 L 116.599 260.063 L 130.137 260.063 L 130.137 265.112 L 110.045 265.063 Z " fill-rule="evenodd" fill="rgb(255,255,255)"/><g id="Group"><path d=" M 0.065 85.154 L 0.065 67.585 L 5.098 67.672 L 5.098 85.154 L 0.065 85.154 Z " fill="rgb(255,255,255)"/><path d=" M 21.099 85.279 L 13.286 76.038 L 11.652 73.291 L 11.503 73.291 L 11.978 76.038 L 11.978 85.154 L 8.116 85.154 L 8.116 67.547 L 11.087 67.547 L 18.96 76.863 L 20.535 79.535 L 20.683 79.535 L 20.208 76.863 L 20.208 67.672 L 24.07 67.672 L 24.07 85.279 L 21.099 85.279 Z " fill="rgb(255,255,255)"/><path d=" M 36.608 80.459 L 36.608 80.459 L 36.608 80.459 Q 36.608 79.66 35.91 79.16 L 35.91 79.16 L 35.91 79.16 Q 35.212 78.661 34.157 78.249 L 34.157 78.249 L 34.157 78.249 Q 33.102 77.837 31.869 77.399 L 31.869 77.399 L 31.869 77.399 Q 30.636 76.962 29.582 76.326 L 29.582 76.326 L 29.582 76.326 Q 28.527 75.689 27.829 74.74 L 27.829 74.74 L 27.829 74.74 Q 27.13 73.791 27.13 72.317 L 27.13 72.317 L 27.13 72.317 Q 27.13 71.044 27.636 70.107 L 27.636 70.107 L 27.636 70.107 Q 28.141 69.17 29.076 68.546 L 29.076 68.546 L 29.076 68.546 Q 30.012 67.922 31.29 67.622 L 31.29 67.622 L 31.29 67.622 Q 32.567 67.322 34.142 67.322 L 34.142 67.322 L 34.142 67.322 Q 35.954 67.322 37.559 67.585 L 37.559 67.585 L 37.559 67.585 Q 39.163 67.847 40.203 68.346 L 40.203 68.346 L 38.925 71.218 L 38.925 71.218 Q 38.272 70.869 36.964 70.582 L 36.964 70.582 L 36.964 70.582 Q 35.657 70.294 34.142 70.294 L 34.142 70.294 L 34.142 70.294 Q 32.716 70.294 31.958 70.769 L 31.958 70.769 L 31.958 70.769 Q 31.201 71.243 31.201 72.043 L 31.201 72.043 L 31.201 72.043 Q 31.201 72.792 31.899 73.291 L 31.899 73.291 L 31.899 73.291 Q 32.597 73.791 33.652 74.215 L 33.652 74.215 L 33.652 74.215 Q 34.706 74.64 35.939 75.089 L 35.939 75.089 L 35.939 75.089 Q 37.172 75.539 38.227 76.176 L 38.227 76.176 L 38.227 76.176 Q 39.282 76.813 39.98 77.749 L 39.98 77.749 L 39.98 77.749 Q 40.678 78.686 40.678 80.084 L 40.678 80.084 L 40.678 80.084 Q 40.678 81.483 40.129 82.494 L 40.129 82.494 L 40.129 82.494 Q 39.579 83.506 38.584 84.18 L 38.584 84.18 L 38.584 84.18 Q 37.588 84.854 36.177 85.179 L 36.177 85.179 L 36.177 85.179 Q 34.766 85.504 33.072 85.504 L 33.072 85.504 L 33.072 85.504 Q 30.844 85.504 29.151 85.154 L 29.151 85.154 L 29.151 85.154 Q 27.457 84.804 26.655 84.455 L 26.655 84.455 L 27.962 81.533 L 27.962 81.533 Q 28.289 81.683 28.809 81.857 L 28.809 81.857 L 28.809 81.857 Q 29.329 82.032 29.983 82.182 L 29.983 82.182 L 29.983 82.182 Q 30.636 82.332 31.364 82.432 L 31.364 82.432 L 31.364 82.432 Q 32.092 82.532 32.864 82.532 L 32.864 82.532 L 32.864 82.532 Q 34.677 82.532 35.642 82.02 L 35.642 82.02 L 35.642 82.02 Q 36.608 81.508 36.608 80.459 Z " fill="rgb(255,255,255)"/><path d=" M 43.161 85.154 Q 42.692 80.638 43.473 76.326 Q 44.254 72.013 46.442 67.672 L 52.317 67.672 Q 49.357 73.191 48.629 76.326 Q 47.916 79.399 48.192 85.154 L 43.161 85.154 Z " fill="rgb(255,255,255)"/></g><g id="Group"><path d=" M 99.473 85.179 Q 100.024 79.391 98.805 75.328 Q 97.586 71.266 95.629 68.098 L 99.661 67.672 Q 100.338 67.597 101.192 67.547 Q 102.047 67.497 102.95 67.472 Q 103.853 67.447 104.707 67.435 Q 105.562 67.422 106.239 67.422 Q 109.238 67.422 111.367 68.072 Q 113.495 68.721 114.817 69.895 Q 116.139 71.069 116.752 72.692 Q 117.365 74.315 117.365 76.263 Q 117.365 78.036 116.784 79.685 Q 116.204 81.333 114.849 82.607 Q 113.495 83.88 111.286 84.655 Q 109.077 85.429 105.82 85.429 Q 105.304 85.429 104.449 85.404 Q 103.595 85.379 102.676 85.341 Q 101.757 85.304 100.918 85.266 Q 100.08 85.229 99.661 85.179 L 99.473 85.179 Z  M 106.438 70.469 Q 105.728 70.469 105.003 70.494 L 102.582 70.75 Q 103.676 73.121 104.161 76.369 Q 104.645 79.617 104.707 82.344 L 103.922 82.282 Q 104.664 82.332 105.019 82.344 Q 105.373 82.357 105.696 82.369 Q 106.018 82.382 106.18 82.382 Q 108.05 82.382 109.292 81.87 Q 110.533 81.358 111.259 80.509 Q 111.984 79.66 112.275 78.548 Q 112.565 77.437 112.565 76.263 Q 112.565 75.239 112.307 74.203 Q 112.049 73.166 111.355 72.342 Q 110.662 71.518 109.469 70.994 Q 108.276 70.469 106.438 70.469 Z " fill-rule="evenodd" fill="rgb(255,255,255)"/><path d=" M 119.815 85.154 L 119.815 67.672 L 130.19 67.672 L 130.19 70.719 L 123.24 70.719 L 123.24 74.79 L 129.565 74.79 L 129.565 77.837 L 123.24 77.837 L 123.24 82.107 L 130.315 82.107 L 130.315 85.154 L 119.815 85.154 Z " fill="rgb(255,255,255)"/></g><g id="Group"><path d=" M 10.765 113.35 L 10.765 106.857 L 0.082 95.868 L 7.671 95.868 L 13.582 102.436 L 14.229 104.284 L 14.459 104.284 L 15.152 102.386 L 20.878 95.868 L 27.666 95.868 L 17.092 106.832 L 17.092 113.35 L 10.765 113.35 Z " fill="rgb(255,255,255)"/><path d=" M 29.329 104.609 Q 29.329 100.239 32.884 97.879 Q 35.979 95.519 42.582 95.519 L 46.145 95.519 C 48.35 95.466 52.268 96.638 52.864 97.094 C 54.101 98.781 55.299 100.125 56.426 101.094 Q 56.758 102.561 56.758 104.609 Q 56.758 108.98 53.18 111.34 Q 49.601 113.7 43.044 113.7 Q 39.534 113.7 36.948 113.05 Q 34.362 112.401 32.677 111.202 Q 30.991 110.004 30.16 108.33 Q 29.329 106.657 29.329 104.609 Z  M 35.978 104.609 Q 35.978 105.933 36.394 107.044 Q 36.81 108.155 37.664 108.955 Q 38.518 109.754 39.857 110.203 Q 41.197 110.653 43.044 110.653 C 49.588 110.614 52.895 107.578 52.02 103.797 C 51.616 103.383 50.52 102.391 48.676 99.734 C 47.364 98.547 45.563 98.393 43.044 98.565 Q 39.673 98.565 37.826 100.026 Q 35.978 101.487 35.978 104.609 Z " fill-rule="evenodd" fill="rgb(255,255,255)"/></g><g id="Group"><path d=" M 107.047 106.907 L 107.047 95.868 L 110.918 95.868 L 110.918 107.157 L 110.918 107.157 Q 110.918 108.855 110.382 110.079 L 110.382 110.079 L 110.382 110.079 Q 109.846 111.302 108.893 112.101 L 108.893 112.101 L 108.893 112.101 Q 107.941 112.901 106.571 113.275 L 106.571 113.275 L 106.571 113.275 Q 105.202 113.65 103.564 113.65 L 103.564 113.65 L 103.564 113.65 C 98.309 114.111 93.504 111.958 92.27 109.729 C 91.036 107.5 90.466 105.324 90.364 101.828 C 91.809 100.43 92.2 100.148 93.793 98.367 Q 95.278 96.383 95.575 95.868 L 101.457 95.856 Q 100.27 97.828 99.114 99.953 C 97.301 103.109 98.265 108.116 98.489 108.828 L 98.489 108.828 L 98.489 108.828 Q 98.645 109.928 100.02 110.297 C 101.395 110.665 103.176 110.603 103.505 110.603 L 103.505 110.603 L 103.505 110.603 Q 105.38 110.603 106.214 109.729 L 106.214 109.729 L 106.214 109.729 Q 107.047 108.855 107.047 106.907 L 107.047 106.907 Z " fill="rgb(255,255,255)"/><path d=" M 114.366 113.319 L 114.366 96.012 Q 115.051 95.912 115.84 95.824 Q 116.629 95.737 117.418 95.687 Q 118.207 95.637 118.951 95.612 Q 119.696 95.587 120.321 95.587 Q 121.78 95.587 123.194 95.812 Q 124.608 96.037 125.724 96.586 Q 126.841 97.136 127.511 98.097 Q 128.18 99.059 128.18 100.507 Q 128.18 102.655 126.99 104.003 Q 125.799 105.352 123.804 105.877 L 125.263 106.651 L 130.286 116.219 L 126.751 118.062 L 120.589 106.476 L 118.445 106.151 L 118.445 113.319 L 114.366 113.319 Z  M 120.653 98.665 Q 120.028 98.665 119.418 98.69 Q 118.807 98.715 118.48 98.79 L 118.48 103.86 L 120.207 103.86 Q 121.904 103.86 122.916 103.211 Q 123.928 102.561 123.928 101.063 Q 123.928 99.939 123.094 99.302 Q 122.261 98.665 120.653 98.665 Z " fill-rule="evenodd" fill="rgb(255,255,255)"/></g></g><line x1="190.115" y1="198.887" x2="190.115" y2="230.068" vector-effect="non-scaling-stroke" stroke-width="5" stroke="rgb(255,255,255)" stroke-linejoin="miter" stroke-linecap="square" stroke-miterlimit="3"/><line x1="170.115" y1="198.887" x2="170.115" y2="230.068" vector-effect="non-scaling-stroke" stroke-width="5" stroke="rgb(255,255,255)" stroke-linejoin="miter" stroke-linecap="square" stroke-miterlimit="3"/><line x1="150.115" y1="198.887" x2="150.115" y2="230.068" vector-effect="non-scaling-stroke" stroke-width="5" stroke="rgb(255,255,255)" stroke-linejoin="miter" stroke-linecap="square" stroke-miterlimit="3"/><path d=" M 127.572 7.5 L 257.69 7.5 L 257.69 262.618 L 128.697 262.573" fill="none" vector-effect="non-scaling-stroke" stroke-width="5" stroke="rgb(255,255,255)" stroke-linejoin="miter" stroke-linecap="square" stroke-miterlimit="3"/><path d=" M 127.572 231.415 L 210.761 231.415 L 210.761 197.484 L 115.947 197.484" fill="none" vector-effect="non-scaling-stroke" stroke-width="5" stroke="rgb(255,255,255)" stroke-linejoin="miter" stroke-linecap="square" stroke-miterlimit="3"/><path d=" M 129.411 118.687 L 159.82 172.2 L 130.131 172.2" fill="none" vector-effect="non-scaling-stroke" stroke-width="4" stroke="rgb(255,255,255)" stroke-linejoin="miter" stroke-linecap="square" stroke-miterlimit="3"/></g></svg>